<svg width="103" height="40" viewBox="0 0 103 40" fill="none" xmlns="http://www.w3.org/2000/svg">
<path d="M10.6584 0.683116V27.6984H11.3081V0.683116H21.0531L18.4544 38.5803H3.2955L0.913393 0.683116H10.6584ZM37.4927 0.683116L39.8748 38.5803H30.1298V30.7843H29.4801V38.5803H19.7351L22.3338 0.683116H37.4927ZM30.1298 22.3387V17.6827H29.4801V22.3387H30.1298ZM50.3198 0.683116C53.6042 0.683116 56.1126 1.78394 57.8451 3.98559C59.6136 6.15114 60.4979 9.61603 60.4979 14.3802V14.4885C60.4979 16.9428 60.2813 19.0001 59.8482 20.6604C59.4512 22.3206 58.8196 23.656 57.9533 24.6666C57.1232 25.6411 56.0585 26.3449 54.7591 26.778C53.4598 27.2112 51.9439 27.4277 50.2115 27.4277H50.1032V38.5803H40.3582V0.683116H50.3198ZM50.1032 18.9821H50.2115C50.5002 18.9821 50.6626 18.946 50.6987 18.8738C50.7348 18.7655 50.7529 18.5128 50.7529 18.1158V9.995C50.7529 9.59798 50.7348 9.36338 50.6987 9.2912C50.6626 9.18292 50.5002 9.12878 50.2115 9.12878H50.1032V18.9821ZM60.9246 10.1574C60.9246 6.87299 61.7728 4.3826 63.4692 2.68625C65.1655 0.989903 67.6198 0.141728 70.832 0.141728C74.1165 0.141728 76.643 1.00795 78.4115 2.74039C80.18 4.47284 81.0643 6.94518 81.0643 10.1574V29.0519C81.0643 32.3002 80.18 34.7906 78.4115 36.523C76.643 38.2555 74.1165 39.1217 70.832 39.1217C67.6198 39.1217 65.1655 38.2735 63.4692 36.5772C61.7728 34.8447 60.9246 32.3363 60.9246 29.0519V10.1574ZM70.6696 29.8098C70.6696 30.3873 70.7779 30.676 70.9945 30.676C71.211 30.676 71.3193 30.3873 71.3193 29.8098V9.45361C71.3193 8.87613 71.211 8.58739 70.9945 8.58739C70.7779 8.58739 70.6696 8.87613 70.6696 9.45361V29.8098ZM91.6641 0.683116C94.9124 0.683116 97.4209 1.51325 99.1894 3.1735C100.958 4.79767 101.842 7.3422 101.842 10.8071V11.0778C101.842 12.6659 101.662 14.0554 101.301 15.2465C100.94 16.4014 100.489 17.3759 99.9473 18.17C99.4059 18.964 98.8104 19.5595 98.1607 19.9566C97.5111 20.3175 96.8975 20.4979 96.32 20.4979V21.1476C96.8975 21.1476 97.5111 21.3642 98.1607 21.7973C98.8104 22.2304 99.4059 22.844 99.9473 23.638C100.489 24.432 100.94 25.4065 101.301 26.5615C101.662 27.7165 101.842 29.0158 101.842 30.4595V30.8926C101.842 32.3363 101.86 33.6898 101.896 34.953C101.969 36.2163 102.131 37.4254 102.384 38.5803H92.6386C92.3859 37.3893 92.2235 36.1621 92.1513 34.8989C92.1152 33.6356 92.0972 32.2641 92.0972 30.7843V25.9118C92.0972 25.5148 92.0792 25.2802 92.0431 25.208C92.007 25.0997 91.8445 25.0456 91.5558 25.0456H91.4475V38.5803H81.7025V0.683116H91.6641ZM91.4475 16.5999H91.5558C91.8445 16.5999 92.007 16.5639 92.0431 16.4917C92.0792 16.3834 92.0972 16.1307 92.0972 15.7337V9.94086C92.0972 9.57994 92.0792 9.36338 92.0431 9.2912C92.007 9.18292 91.8445 9.12878 91.5558 9.12878H91.4475V16.5999Z" fill="#0A23F4"/>
</svg>
