<svg width="201" height="72" viewBox="0 0 201 72" fill="none" xmlns="http://www.w3.org/2000/svg">
<g clip-path="url(#clip0_13_718)">
<path d="M130.802 14.9322C130.802 15.3563 130.634 15.763 130.334 16.0629C130.034 16.3627 129.627 16.5312 129.203 16.5312C128.779 16.5312 128.373 16.3627 128.073 16.0629C127.773 15.763 127.604 15.3563 127.604 14.9322C127.604 14.5082 127.773 14.1015 128.073 13.8016C128.373 13.5018 128.779 13.3333 129.203 13.3333C129.627 13.3333 130.034 13.5018 130.334 13.8016C130.634 14.1015 130.802 14.5082 130.802 14.9322Z" fill="#0A23F4"/>
<path fill-rule="evenodd" clip-rule="evenodd" d="M87.8979 56.8174C79.8032 56.8174 73.2412 50.2555 73.2412 42.1607V14.3993H78.5709V42.1607C78.5709 44.6344 79.5536 47.0068 81.3027 48.7559C83.0519 50.5051 85.4243 51.4877 87.8979 51.4877C93.1136 51.4877 97.2249 47.4681 97.2249 42.3803H102.555V50.3749C102.555 50.7283 102.695 51.0672 102.945 51.3171C103.195 51.5669 103.534 51.7073 103.887 51.7073C104.24 51.7073 104.579 51.5669 104.829 51.3171C105.079 51.0672 105.22 50.7283 105.22 50.3749V40.9146C104.251 41.1122 103.252 41.092 102.292 40.8555C101.333 40.619 100.438 40.1721 99.6731 39.5471C98.9078 38.9222 98.2911 38.1348 97.8677 37.2421C97.4443 36.3494 97.2247 35.3737 97.2249 34.3857V21.0614C97.2249 19.2945 97.9269 17.6 99.1762 16.3506C100.426 15.1012 102.12 14.3993 103.887 14.3993C105.654 14.3993 107.349 15.1012 108.598 16.3506C109.847 17.6 110.549 19.2945 110.549 21.0614V50.3749C110.549 50.7283 110.69 51.0672 110.94 51.3171C111.189 51.5669 111.528 51.7073 111.882 51.7073C112.235 51.7073 112.574 51.5669 112.824 51.3171C113.074 51.0672 113.214 50.7283 113.214 50.3749V21.0614C113.214 19.2945 113.916 17.6 115.165 16.3506C116.415 15.1012 118.109 14.3993 119.876 14.3993C121.643 14.3993 123.338 15.1012 124.587 16.3506C125.837 17.6 126.538 19.2945 126.538 21.0614V50.3749C126.538 51.6121 126.194 52.8249 125.543 53.8774C124.893 54.9298 123.962 55.7804 122.856 56.3337C121.749 56.887 120.51 57.1212 119.278 57.0101C118.046 56.899 116.869 56.4469 115.879 55.7046C114.727 56.5714 113.324 57.0392 111.882 57.037C110.44 57.0392 109.037 56.5714 107.884 55.7046C107.083 56.3059 106.155 56.7186 105.172 56.9119C104.189 57.1052 103.174 57.0742 102.204 56.8211C101.235 56.5681 100.334 56.0995 99.5709 55.4504C98.8073 54.8012 98.2 53.9881 97.7942 53.0717C95.1762 55.4136 91.6938 56.8174 87.8979 56.8174ZM119.876 51.7073C119.141 51.7073 118.544 51.1104 118.544 50.3749V21.0614C118.544 20.708 118.684 20.3691 118.934 20.1193C119.184 19.8694 119.523 19.729 119.876 19.729C120.23 19.729 120.569 19.8694 120.818 20.1193C121.068 20.3691 121.209 20.708 121.209 21.0614V50.3749C121.209 51.1104 120.612 51.7073 119.876 51.7073ZM105.22 34.3857C105.22 34.7391 105.079 35.078 104.829 35.3279C104.579 35.5778 104.24 35.7182 103.887 35.7182C103.534 35.7182 103.195 35.5778 102.945 35.3279C102.695 35.078 102.555 34.7391 102.555 34.3857V21.0614C102.555 20.708 102.695 20.3691 102.945 20.1193C103.195 19.8694 103.534 19.729 103.887 19.729C104.24 19.729 104.579 19.8694 104.829 20.1193C105.079 20.3691 105.22 20.708 105.22 21.0614V34.3857Z" fill="#0A23F4"/>
<path fill-rule="evenodd" clip-rule="evenodd" d="M81.2354 42.3803C81.2354 44.1472 81.9373 45.8418 83.1867 47.0912C84.436 48.3406 86.1306 49.0425 87.8975 49.0425C89.6644 49.0425 91.359 48.3406 92.6084 47.0912C93.8577 45.8418 94.5597 44.1472 94.5597 42.3803V21.0614C94.5597 19.2945 93.8577 17.6 92.6084 16.3506C91.359 15.1012 89.6644 14.3993 87.8975 14.3993C86.1306 14.3993 84.436 15.1012 83.1867 16.3506C81.9373 17.6 81.2354 19.2945 81.2354 21.0614V42.3803ZM87.8975 43.7127C87.162 43.7127 86.5651 43.1158 86.5651 42.3803V21.0614C86.5651 20.708 86.7055 20.3691 86.9553 20.1193C87.2052 19.8694 87.5441 19.729 87.8975 19.729C88.2509 19.729 88.5898 19.8694 88.8397 20.1193C89.0896 20.3691 89.2299 20.708 89.2299 21.0614V42.3803C89.2299 43.1158 88.633 43.7127 87.8975 43.7127Z" fill="#0A23F4"/>
</g>
<defs>
<clipPath id="clip0_13_718">
<rect width="57.561" height="43.7037" fill="white" transform="translate(73.2412 13.3333)"/>
</clipPath>
</defs>
</svg>
