<svg width="201" height="72" viewBox="0 0 201 72" fill="none" xmlns="http://www.w3.org/2000/svg">
<path d="M68.3916 28.4637H72.2825V44.2213H68.3916V28.4637ZM73.834 38.294C73.834 34.391 76.2583 32.0516 79.8946 32.0516C83.531 32.0516 85.9552 34.391 85.9552 38.294C85.9552 42.1971 83.6158 44.5607 79.8946 44.5607C76.1734 44.5607 73.834 42.2819 73.834 38.294ZM82.1007 38.294C82.1007 36.1486 81.2643 34.888 79.931 34.888C78.5977 34.888 77.7734 36.1001 77.7734 38.294C77.7734 40.488 78.5977 41.688 79.931 41.688C81.2643 41.688 82.1249 40.488 82.1249 38.3061L82.1007 38.294ZM87.5068 45.0334H91.2643C91.4354 45.4379 91.7341 45.7755 92.115 45.9943C92.4958 46.2132 92.9378 46.3014 93.3734 46.2455C94.8643 46.2455 95.6401 45.4455 95.6401 44.2577V42.0758H95.6522C95.3311 42.7552 94.8118 43.3214 94.1629 43.7001C93.5138 44.0787 92.7653 44.252 92.0158 44.1971C89.1674 44.1971 87.2765 42.0274 87.2765 38.294C87.2765 34.5607 89.0825 32.2334 92.1249 32.2334C92.8935 32.1923 93.6561 32.3905 94.3072 32.8008C94.9585 33.2111 95.4665 33.8133 95.7613 34.5243H95.6522V32.3304H99.5068V44.1364C99.5068 46.9849 96.9855 48.7667 93.2765 48.7667C89.9068 48.7546 87.7492 47.2152 87.531 45.0455L87.5068 45.0334ZM95.6522 38.294C95.6522 36.391 94.7795 35.191 93.3977 35.191C92.0158 35.191 91.1674 36.4031 91.1674 38.294C91.1674 40.1849 92.0037 41.3001 93.3977 41.3001C94.7916 41.3001 95.6522 40.2698 95.6522 38.294ZM101.046 38.294C101.046 34.391 103.47 32.0516 107.107 32.0516C110.743 32.0516 113.167 34.391 113.167 38.294C113.167 42.1971 110.816 44.5607 107.107 44.5607C103.398 44.5607 101.07 42.2819 101.07 38.294H101.046ZM109.313 38.294C109.313 36.1486 108.464 34.888 107.143 34.888C105.822 34.888 104.986 36.1001 104.986 38.294C104.986 40.488 105.81 41.688 107.143 41.688C108.476 41.688 109.337 40.488 109.337 38.3061L109.313 38.294ZM114.743 29.4577C114.726 29.0613 114.828 28.6689 115.036 28.3311C115.244 27.9932 115.548 27.7253 115.91 27.5618C116.271 27.3981 116.673 27.3465 117.064 27.4134C117.455 27.4802 117.817 27.6625 118.104 27.9368C118.39 28.2112 118.588 28.5649 118.672 28.9527C118.756 29.3404 118.722 29.7444 118.574 30.1126C118.427 30.4808 118.172 30.7964 117.844 31.0189C117.515 31.2413 117.128 31.3603 116.731 31.3607C116.478 31.3671 116.225 31.3231 115.989 31.2314C115.752 31.1395 115.537 31.0015 115.354 30.8257C115.171 30.6498 115.025 30.4394 114.925 30.2065C114.824 29.9738 114.771 29.7234 114.767 29.4698L114.743 29.4577ZM114.743 32.3183H118.683V44.2698H114.804L114.743 32.3183ZM132.852 38.294C132.852 42.1849 131.107 44.4395 128.137 44.4395C127.377 44.4864 126.62 44.2987 125.97 43.9021C125.32 43.5054 124.807 42.9188 124.501 42.2213H124.428V48.1122H120.537V32.3546H124.404V34.488H124.476C124.772 33.7768 125.28 33.174 125.931 32.7619C126.582 32.3498 127.343 32.1483 128.113 32.1849C131.167 32.1607 132.925 34.4031 132.925 38.3061L132.852 38.294ZM128.889 38.294C128.889 36.4031 128.004 35.1789 126.634 35.1789C125.264 35.1789 124.404 36.391 124.392 38.294C124.379 40.1971 125.264 41.3971 126.634 41.3971C128.004 41.3971 128.961 40.2698 128.961 38.3061L128.889 38.294ZM139.495 32.0395C142.755 32.0395 144.779 33.5789 144.804 36.0516H141.252C141.252 35.191 140.537 34.6577 139.47 34.6577C138.404 34.6577 137.895 35.0698 137.895 35.688C137.895 36.3061 138.343 36.5001 139.24 36.6819L141.737 37.191C144.161 37.7001 145.131 38.6698 145.131 40.4758C145.131 42.9001 142.889 44.5486 139.555 44.5486C136.222 44.5486 134.052 42.9486 133.895 40.5122H137.664C137.773 41.3971 138.476 41.9183 139.616 41.9183C140.755 41.9183 141.289 41.5546 141.289 40.9122C141.289 40.2698 140.925 40.1607 139.992 39.9667L137.737 39.494C135.398 38.9971 134.173 37.7728 134.173 35.9425C134.246 33.5668 136.283 32.0516 139.567 32.0516L139.495 32.0395ZM158.161 44.2577H154.392V42.0152H154.319C154.108 42.7632 153.649 43.4169 153.016 43.8686C152.383 44.3203 151.616 44.543 150.84 44.5001C150.255 44.5191 149.67 44.4141 149.129 44.1918C148.587 43.9697 148.097 43.6352 147.693 43.2106C147.289 42.7859 146.979 42.2806 146.784 41.7278C146.589 41.1751 146.513 40.5872 146.561 40.0031V32.3304H150.452V39.1667C150.452 40.5728 151.192 41.3364 152.404 41.3364C152.689 41.3343 152.969 41.2711 153.227 41.1514C153.485 41.0315 153.714 40.8577 153.898 40.6417C154.084 40.4257 154.221 40.1724 154.299 39.8992C154.377 39.6259 154.396 39.339 154.355 39.0577V32.3304H158.234L158.161 44.2577ZM160.04 32.3183H163.822V34.6213H163.907C164.115 33.8835 164.564 33.2358 165.179 32.7796C165.796 32.3235 166.547 32.0844 167.313 32.1001C168.083 32.0332 168.85 32.2557 169.463 32.7242C170.078 33.1927 170.495 33.8735 170.634 34.6334H170.804C171.046 33.8694 171.533 33.2069 172.192 32.7488C172.849 32.2906 173.64 32.0626 174.44 32.1001C174.972 32.0798 175.503 32.1722 175.996 32.3711C176.491 32.5699 176.937 32.8709 177.307 33.2543C177.676 33.6375 177.96 34.0946 178.141 34.5955C178.323 35.0963 178.395 35.6297 178.355 36.1607V44.2698H174.44V37.1546C174.44 35.9425 173.87 35.2637 172.767 35.2637C172.523 35.2597 172.28 35.3087 172.056 35.4071C171.832 35.5057 171.633 35.6515 171.47 35.8345C171.308 36.0177 171.187 36.2335 171.115 36.4677C171.045 36.7019 171.026 36.9486 171.058 37.191V44.2698H167.349V37.1183C167.349 35.9061 166.755 35.2637 165.689 35.2637C165.441 35.2618 165.196 35.3127 164.971 35.4131C164.744 35.5135 164.543 35.6611 164.378 35.8459C164.215 36.0307 164.092 36.2486 164.019 36.4847C163.946 36.7209 163.924 36.97 163.955 37.2152V44.2698H160.064L160.04 32.3183Z" fill="#0A23F4"/>
<path d="M60.6948 29.4938C60.6949 27.0814 59.9665 24.7251 58.6048 22.7336C57.2431 20.7422 55.3116 19.2084 53.0634 18.3333C50.8153 17.4581 48.3552 17.2824 46.0055 17.829C43.6557 18.3757 41.5259 19.6192 39.8948 21.3969H24.7676V53.3241H56.707V38.4029C57.9605 37.2817 58.9637 35.9088 59.6508 34.3736C60.338 32.8384 60.6937 31.1758 60.6948 29.4938ZM54.5494 29.4938C54.5518 30.6498 54.2112 31.7806 53.5707 32.7431C52.9301 33.7054 52.0186 34.4561 50.9512 34.9001C49.8838 35.3443 48.7088 35.4617 47.5746 35.2376C46.4405 35.0136 45.3983 34.4581 44.58 33.6415C43.7617 32.8249 43.2042 31.7839 42.9777 30.6502C42.7513 29.5166 42.8663 28.3412 43.3082 27.273C43.75 26.2047 44.4988 25.2915 45.4598 24.649C46.4209 24.0065 47.5509 23.6636 48.7069 23.6635C50.2543 23.6635 51.7386 24.2774 52.8339 25.3705C53.9293 26.4635 54.5462 27.9464 54.5494 29.4938ZM50.5615 47.1787H30.913V27.5423H36.9009C36.7853 28.1866 36.7244 28.8394 36.7191 29.4938C36.7223 32.6723 37.9863 35.7195 40.2339 37.9671C42.4813 40.2144 45.5285 41.4786 48.7069 41.4817C49.3284 41.4784 49.9485 41.4257 50.5615 41.3241V47.1787Z" fill="#0A23F4"/>
</svg>
