<svg width="201" height="72" viewBox="0 0 201 72" fill="none" xmlns="http://www.w3.org/2000/svg">
<g clip-path="url(#clip0_13_736)">
<path fill-rule="evenodd" clip-rule="evenodd" d="M49.0927 23.9535V49.9233H42.1572V23.9535H49.0927Z" fill="#0A23F4"/>
<path fill-rule="evenodd" clip-rule="evenodd" d="M52.5605 23.9535H67.2986C72.0865 23.9535 75.968 27.8292 75.968 32.6101C75.968 37.3911 72.0865 41.2667 67.2986 41.2667H59.4961V49.9233H52.5605V23.9535ZM59.4961 34.3414H67.2986C68.2562 34.3414 69.0324 33.5663 69.0324 32.6101C69.0324 31.654 68.2562 30.8788 67.2986 30.8788H59.4961V34.3414Z" fill="#0A23F4"/>
<path fill-rule="evenodd" clip-rule="evenodd" d="M101.977 23.9535V37.3712C101.977 40.4788 104.499 42.998 107.612 42.998C110.724 42.998 113.247 40.4788 113.247 37.3712V23.9535H120.183V37.3712C120.183 44.3036 114.554 49.9233 107.612 49.9233C100.669 49.9233 95.041 44.3036 95.041 37.3712V23.9535H101.977Z" fill="#0A23F4"/>
<path fill-rule="evenodd" clip-rule="evenodd" d="M78.5693 36.0728C78.5693 29.3795 84.0033 23.9535 90.7065 23.9535H92.4403V30.8788H90.7065C87.8337 30.8788 85.5048 33.2042 85.5048 36.0728V36.9384C85.5048 44.1097 79.6827 49.9233 72.5007 49.9233H71.6338V42.998H72.5007C75.8523 42.998 78.5693 40.2851 78.5693 36.9384V36.0728Z" fill="#0A23F4"/>
<path d="M159.195 24.8192C159.195 26.2535 158.031 27.4162 156.594 27.4162C155.157 27.4162 153.993 26.2535 153.993 24.8192C153.993 23.3849 155.157 22.2222 156.594 22.2222C158.031 22.2222 159.195 23.3849 159.195 24.8192Z" fill="#0A23F4"/>
<path d="M127.629 49.9236L130.939 36.0856L133.399 44.4106C134.866 49.3759 141.91 49.3759 143.377 44.4106L145.837 36.0856L149.147 49.9236H156.277L151.073 28.1641C149.836 22.9895 142.533 22.7979 141.025 27.9005L138.388 36.8233L135.751 27.9005C134.244 22.7979 126.94 22.9894 125.703 28.1641L120.499 49.9236H127.629Z" fill="#0A23F4"/>
</g>
<defs>
<clipPath id="clip0_13_736">
<rect width="117.037" height="27.7011" fill="white" transform="translate(42.1572 22.2222)"/>
</clipPath>
</defs>
</svg>
