<svg width="200" height="72" viewBox="0 0 200 72" fill="none" xmlns="http://www.w3.org/2000/svg">
<g clip-path="url(#clip0_13_723)">
<path d="M109.711 40.7278H113.102V27.9383H109.711V40.7278ZM109.711 25.9439H113.102V22.9023H109.711V25.9439Z" fill="#0A23F4"/>
<path d="M115.286 44.9159H118.677V39.2815H118.726C119.449 40.3785 120.621 41.1015 122.416 41.1015C125.707 41.1015 127.951 38.4838 127.951 34.3453C127.951 30.3563 125.782 27.589 122.391 27.589C120.646 27.589 119.449 28.4117 118.627 29.5336H118.552V27.938H115.286V44.9159ZM121.693 38.2843C119.674 38.2843 118.602 36.7636 118.602 34.445C118.602 32.1513 119.449 30.3314 121.569 30.3314C123.663 30.3314 124.51 32.0267 124.51 34.445C124.51 36.8633 123.413 38.2843 121.693 38.2843Z" fill="#0A23F4"/>
<path d="M134.714 41.1015C137.906 41.1015 140.1 39.5558 140.1 36.9879C140.1 33.9962 137.731 33.3979 135.587 32.9492C133.767 32.5752 132.072 32.4754 132.072 31.3785C132.072 30.4561 132.945 29.9574 134.266 29.9574C135.712 29.9574 136.585 30.4561 136.734 31.8272H139.8C139.551 29.2594 137.681 27.589 134.316 27.589C131.399 27.589 129.105 28.9103 129.105 31.6777C129.105 34.4699 131.349 35.0932 133.643 35.5419C135.388 35.891 137.008 36.0156 137.008 37.2372C137.008 38.1347 136.161 38.7082 134.665 38.7082C133.144 38.7082 132.097 38.0599 131.873 36.589H128.731C128.931 39.3065 131 41.1015 134.714 41.1015Z" fill="#0A23F4"/>
<path d="M152.972 40.7281V27.9385H149.582V35.3181C149.582 37.0134 148.61 38.21 147.014 38.21C145.568 38.21 144.895 37.3873 144.895 35.8915V27.9385H141.529V36.4649C141.529 39.2571 143.125 41.0771 145.967 41.0771C147.762 41.0771 148.759 40.404 149.632 39.2323H149.707V40.7281H152.972Z" fill="#0A23F4"/>
<path d="M155.166 40.7275H158.557V33.2982C158.557 31.6028 159.479 30.5059 160.851 30.5059C162.097 30.5059 162.82 31.2538 162.82 32.6998V40.7275H166.211V33.2982C166.211 31.6028 167.083 30.5059 168.504 30.5059C169.751 30.5059 170.474 31.2538 170.474 32.6998V40.7275H173.865V32.1264C173.865 29.3341 172.343 27.589 169.651 27.589C168.031 27.589 166.684 28.4366 165.811 29.8327H165.762C165.139 28.4865 163.842 27.589 162.222 27.589C160.452 27.589 159.205 28.4865 158.507 29.6582H158.432V27.938H155.166V40.7275Z" fill="#0A23F4"/>
<path d="M21.3398 40.7278H24.7304V22.9023H21.3398V40.7278Z" fill="#0A23F4"/>
<path d="M33.0213 41.1015C36.9853 41.1015 39.7028 38.1597 39.7028 34.3453C39.7028 30.5308 36.9853 27.589 33.0213 27.589C29.0573 27.589 26.3398 30.5308 26.3398 34.3453C26.3398 38.1597 29.0573 41.1015 33.0213 41.1015ZM33.0213 38.5087C30.9272 38.5087 29.7803 36.8383 29.7803 34.3453C29.7803 31.8522 30.9272 30.1569 33.0213 30.1569C35.0906 30.1569 36.2623 31.8522 36.2623 34.3453C36.2623 36.8383 35.0906 38.5087 33.0213 38.5087Z" fill="#0A23F4"/>
<path d="M46.9129 45.0904C48.8076 45.0904 50.4531 44.6417 51.5251 43.6444C52.4725 42.7718 53.0459 41.5502 53.0459 39.7553V27.938H49.78V29.2843H49.7301C48.9572 28.2123 47.7855 27.589 46.1899 27.589C42.9489 27.589 40.6553 30.0322 40.6553 33.8466C40.6553 37.7109 43.4475 39.9546 46.2897 39.9546C47.9101 39.9546 48.8825 39.3065 49.6303 38.4588H49.7052V39.855C49.7052 41.6001 48.7827 42.5226 46.863 42.5226C45.2924 42.5226 44.5694 41.8993 44.2952 41.1015H40.9295C41.2785 43.5946 43.4226 45.0904 46.9129 45.0904ZM46.863 37.2372C45.1179 37.2372 43.9711 35.9657 43.9711 33.7968C43.9711 31.6527 45.1179 30.3065 46.8381 30.3065C48.8825 30.3065 49.8797 31.9021 49.8797 33.7718C49.8797 35.6666 49.0071 37.2372 46.863 37.2372Z" fill="#0A23F4"/>
<path d="M61.2879 41.1015C65.2519 41.1015 67.9694 38.1597 67.9694 34.3453C67.9694 30.5308 65.2519 27.589 61.2879 27.589C57.3239 27.589 54.6064 30.5308 54.6064 34.3453C54.6064 38.1597 57.3239 41.1015 61.2879 41.1015ZM61.2879 38.5087C59.1937 38.5087 58.047 36.8383 58.047 34.3453C58.047 31.8522 59.1937 30.1569 61.2879 30.1569C63.3572 30.1569 64.529 31.8522 64.529 34.3453C64.529 36.8383 63.3572 38.5087 61.2879 38.5087Z" fill="#0A23F4"/>
<path d="M175.097 25.8374C175.097 25.2637 175.562 24.7986 176.136 24.7986H178.213C178.787 24.7986 179.252 25.2637 179.252 25.8374C179.252 26.4111 178.787 26.8762 178.213 26.8762H176.136C175.562 26.8762 175.097 26.4111 175.097 25.8374Z" fill="#0A23F4"/>
<path fill-rule="evenodd" clip-rule="evenodd" d="M88.5313 19.2593C96.5628 19.2593 103.074 25.7704 103.074 33.8022C103.074 41.8341 96.5628 48.3452 88.5313 48.3452C80.4994 48.3452 73.9883 41.8341 73.9883 33.8022C73.9883 25.7704 80.4994 19.2593 88.5313 19.2593ZM88.0056 20.3475C86.3465 20.581 84.7667 21.9141 83.5403 24.1438C83.1846 24.7906 82.8636 25.5051 82.584 26.2766C84.2515 25.8575 86.0832 25.6105 88.0056 25.5723V20.3475ZM81.3548 26.6259C81.7027 25.5343 82.1281 24.5299 82.6192 23.6372C83.2271 22.5319 83.9486 21.5774 84.7614 20.8443C80.3412 22.128 76.857 25.6122 75.5733 30.0325C76.3064 29.2196 77.2608 28.4981 78.3662 27.8902C79.2589 27.3992 80.2632 26.9737 81.3548 26.6259ZM81.0056 27.855C80.5865 29.5225 80.3395 31.3542 80.3012 33.2766H75.0765C75.3099 31.6175 76.6431 30.0376 78.8728 28.8114C79.5196 28.4557 80.2341 28.1347 81.0056 27.855ZM81.3528 33.2766C81.3962 31.1787 81.6982 29.2091 82.1979 27.4689C83.9382 26.9692 85.9077 26.6672 88.0056 26.6238V28.8946C87.223 30.8982 85.6267 32.4942 83.6231 33.2766H81.3528ZM80.3012 34.3279H75.0765C75.3099 35.987 76.6431 37.5668 78.8728 38.7931C79.5196 39.1488 80.2341 39.4698 81.0056 39.7495C80.5865 38.082 80.3395 36.2503 80.3012 34.3279ZM82.1979 40.1356C81.6982 38.3954 81.3962 36.4258 81.3528 34.3279H83.6231C85.6267 35.1102 87.223 36.7063 88.0056 38.7099V40.9807C85.9077 40.9373 83.9382 40.6353 82.1979 40.1356ZM81.3548 40.9786C80.2632 40.6308 79.2589 40.2053 78.3662 39.7143C77.2608 39.1064 76.3064 38.3849 75.5733 37.572C76.857 41.9923 80.3412 45.4765 84.7614 46.7602C83.9486 46.0271 83.2271 45.0726 82.6192 43.9673C82.1281 43.0746 81.7027 42.0702 81.3548 40.9786ZM88.0056 47.257C86.3465 47.0235 84.7667 45.6903 83.5403 43.4607C83.1846 42.814 82.8636 42.0994 82.584 41.3279C84.2515 41.7469 86.0832 41.994 88.0056 42.0322V47.257ZM92.301 46.7602C93.1139 46.0271 93.8353 45.0726 94.4432 43.9673C94.934 43.0746 95.3601 42.0702 95.7077 40.9786C96.7992 40.6308 97.8034 40.2053 98.6963 39.7143C99.8016 39.1064 100.756 38.3849 101.489 37.572C100.205 41.9923 96.7214 45.4765 92.301 46.7602ZM94.4788 41.3279C94.1989 42.0994 93.8775 42.814 93.5219 43.4607C92.2958 45.6903 90.716 47.0235 89.0568 47.257V42.0322C90.9792 41.994 92.811 41.7469 94.4788 41.3279ZM96.0568 39.7495C96.8283 39.4698 97.543 39.1488 98.1895 38.7931C100.42 37.5668 101.753 35.987 101.986 34.3279H96.7614C96.7228 36.2503 96.4756 38.082 96.0568 39.7495ZM95.7099 34.3279C95.6663 36.4258 95.3645 38.3954 94.8642 40.1356C93.1243 40.6353 91.1547 40.9373 89.0568 40.9807V38.7116C89.8393 36.7073 91.4359 35.1105 93.44 34.3279H95.7099ZM96.7614 33.2766H101.986C101.753 31.6175 100.42 30.0376 98.1895 28.8114C97.543 28.4557 96.8283 28.1347 96.0568 27.855C96.4756 29.5225 96.7228 31.3542 96.7614 33.2766ZM94.8642 27.4689C95.3645 29.2091 95.6663 31.1787 95.7099 33.2766H93.4401C91.4359 32.494 89.8393 30.8972 89.0568 28.8929V26.6238C91.1547 26.6672 93.1243 26.9692 94.8642 27.4689ZM95.7077 26.6259C96.7992 26.9737 97.8034 27.3992 98.6963 27.8902C99.8016 28.4981 100.756 29.2196 101.489 30.0325C100.205 25.6122 96.7214 22.128 92.301 20.8443C93.1139 21.5774 93.8353 22.5319 94.4432 23.6372C94.934 24.5299 95.3601 25.5343 95.7077 26.6259ZM89.0568 20.3475C90.716 20.581 92.2958 21.9141 93.5219 24.1438C93.8775 24.7906 94.1989 25.5051 94.4788 26.2766C92.811 25.8575 90.9792 25.6105 89.0568 25.5723V20.3475Z" fill="#0A23F4"/>
</g>
<defs>
<clipPath id="clip0_13_723">
<rect width="158.519" height="29.086" fill="white" transform="translate(20.7412 19.2593)"/>
</clipPath>
</defs>
</svg>
